<?xml version="1.0" encoding="UTF-8" standalone="no"?>
<!DOCTYPE svg PUBLIC "-//W3C//DTD SVG 1.1//EN" "http://www.w3.org/Graphics/SVG/1.1/DTD/svg11.dtd">
<svg width="100%" height="100%" viewBox="0 0 760 109" version="1.1" xmlns="http://www.w3.org/2000/svg" xmlns:xlink="http://www.w3.org/1999/xlink" xml:space="preserve" xmlns:serif="http://www.serif.com/" style="fill-rule:evenodd;clip-rule:evenodd;stroke-linejoin:round;stroke-miterlimit:2;">
    <g transform="matrix(1,0,0,1,-42.7862,-172.054)">
        <g transform="matrix(144,0,0,144,37.0206,279.211)">
            <path d="M0.04,-0.712L0.04,-0.719L0.245,-0.719C0.318,-0.719 0.371,-0.711 0.404,-0.695C0.437,-0.678 0.461,-0.658 0.476,-0.634C0.491,-0.61 0.499,-0.578 0.499,-0.538C0.499,-0.477 0.478,-0.431 0.436,-0.4C0.394,-0.37 0.337,-0.355 0.265,-0.356L0.265,-0.364C0.311,-0.364 0.348,-0.378 0.376,-0.406C0.405,-0.434 0.419,-0.471 0.419,-0.516C0.419,-0.552 0.412,-0.583 0.398,-0.611C0.384,-0.638 0.365,-0.659 0.34,-0.673C0.315,-0.688 0.277,-0.695 0.225,-0.695L0.174,-0.695L0.174,-0.08C0.174,-0.045 0.178,-0.024 0.186,-0.017C0.193,-0.011 0.208,-0.007 0.23,-0.007L0.23,-0L0.04,-0L0.04,-0.007C0.074,-0.007 0.091,-0.023 0.091,-0.054L0.091,-0.649C0.091,-0.674 0.088,-0.691 0.081,-0.699C0.075,-0.708 0.061,-0.712 0.04,-0.712Z" style="fill-rule:nonzero;"/>
        </g>
        <g transform="matrix(144,0,0,144,113.45,279.211)">
            <path d="M0.041,-0.712L0.041,-0.719L0.228,-0.719C0.283,-0.719 0.321,-0.717 0.344,-0.712C0.367,-0.708 0.389,-0.699 0.41,-0.686C0.431,-0.673 0.448,-0.655 0.463,-0.631C0.478,-0.606 0.485,-0.579 0.485,-0.548C0.485,-0.487 0.455,-0.439 0.395,-0.404C0.447,-0.395 0.486,-0.374 0.512,-0.34C0.539,-0.306 0.552,-0.264 0.552,-0.216C0.552,-0.171 0.54,-0.129 0.518,-0.092C0.495,-0.055 0.469,-0.031 0.44,-0.018C0.411,-0.006 0.37,-0 0.318,-0L0.04,-0L0.04,-0.007C0.062,-0.007 0.076,-0.012 0.083,-0.021C0.089,-0.03 0.092,-0.053 0.092,-0.089L0.092,-0.631C0.092,-0.657 0.091,-0.675 0.09,-0.684C0.088,-0.694 0.083,-0.701 0.075,-0.705C0.067,-0.71 0.056,-0.712 0.041,-0.712ZM0.175,-0.704L0.175,-0.388L0.262,-0.388C0.321,-0.388 0.361,-0.405 0.38,-0.439C0.399,-0.473 0.409,-0.507 0.409,-0.54C0.409,-0.576 0.402,-0.606 0.387,-0.631C0.372,-0.655 0.35,-0.673 0.321,-0.686C0.292,-0.698 0.25,-0.704 0.194,-0.704L0.175,-0.704ZM0.231,-0.373L0.175,-0.373L0.175,-0.145C0.175,-0.113 0.176,-0.093 0.178,-0.083C0.181,-0.074 0.186,-0.064 0.195,-0.054C0.204,-0.043 0.218,-0.035 0.237,-0.029C0.256,-0.022 0.284,-0.019 0.32,-0.019C0.376,-0.019 0.415,-0.032 0.438,-0.058C0.462,-0.084 0.473,-0.122 0.473,-0.173C0.473,-0.226 0.463,-0.269 0.442,-0.302C0.422,-0.335 0.399,-0.355 0.373,-0.362C0.347,-0.369 0.3,-0.373 0.231,-0.373Z" style="fill-rule:nonzero;"/>
        </g>
        <g transform="matrix(144,0,0,144,239.31,279.211)">
            <path d="M0.04,-0.712L0.04,-0.719L0.245,-0.719C0.318,-0.719 0.371,-0.711 0.404,-0.695C0.437,-0.678 0.461,-0.658 0.476,-0.634C0.491,-0.61 0.499,-0.578 0.499,-0.538C0.499,-0.477 0.478,-0.431 0.436,-0.4C0.394,-0.37 0.337,-0.355 0.265,-0.356L0.265,-0.364C0.311,-0.364 0.348,-0.378 0.376,-0.406C0.405,-0.434 0.419,-0.471 0.419,-0.516C0.419,-0.552 0.412,-0.583 0.398,-0.611C0.384,-0.638 0.365,-0.659 0.34,-0.673C0.315,-0.688 0.277,-0.695 0.225,-0.695L0.174,-0.695L0.174,-0.08C0.174,-0.045 0.178,-0.024 0.186,-0.017C0.193,-0.011 0.208,-0.007 0.23,-0.007L0.23,-0L0.04,-0L0.04,-0.007C0.074,-0.007 0.091,-0.023 0.091,-0.054L0.091,-0.649C0.091,-0.674 0.088,-0.691 0.081,-0.699C0.075,-0.708 0.061,-0.712 0.04,-0.712Z" style="fill-rule:nonzero;"/>
        </g>
        <g transform="matrix(144,0,0,144,315.739,279.211)">
            <path d="M0.567,-0.359L0.172,-0.359L0.172,-0.082C0.172,-0.056 0.173,-0.04 0.176,-0.033C0.178,-0.026 0.183,-0.02 0.189,-0.015C0.196,-0.01 0.208,-0.007 0.224,-0.007L0.224,-0L0.038,-0L0.038,-0.007C0.072,-0.005 0.089,-0.021 0.089,-0.057L0.089,-0.635C0.089,-0.668 0.086,-0.688 0.081,-0.697C0.075,-0.706 0.061,-0.711 0.038,-0.712L0.038,-0.719L0.224,-0.719L0.224,-0.712C0.204,-0.711 0.19,-0.707 0.183,-0.7C0.175,-0.694 0.172,-0.68 0.172,-0.66L0.172,-0.379L0.567,-0.379L0.567,-0.636C0.567,-0.666 0.564,-0.685 0.559,-0.696C0.554,-0.707 0.54,-0.712 0.517,-0.712L0.517,-0.719L0.701,-0.719L0.701,-0.712C0.686,-0.712 0.675,-0.71 0.668,-0.707C0.661,-0.703 0.656,-0.698 0.654,-0.691C0.651,-0.684 0.65,-0.666 0.65,-0.636L0.65,-0.084C0.65,-0.056 0.651,-0.038 0.654,-0.031C0.656,-0.024 0.661,-0.019 0.667,-0.014C0.674,-0.01 0.685,-0.007 0.701,-0.007L0.701,-0L0.517,-0L0.517,-0.007C0.537,-0.007 0.55,-0.011 0.557,-0.02C0.564,-0.028 0.567,-0.05 0.567,-0.085L0.567,-0.359Z" style="fill-rule:nonzero;"/>
        </g>
        <g transform="matrix(144,0,0,144,422.333,279.211)">
            <path d="M0.436,-0.73C0.537,-0.73 0.619,-0.699 0.684,-0.638C0.748,-0.577 0.78,-0.5 0.78,-0.408C0.78,-0.29 0.743,-0.191 0.668,-0.11C0.594,-0.029 0.496,0.011 0.373,0.011C0.273,0.011 0.192,-0.021 0.128,-0.086C0.065,-0.152 0.033,-0.23 0.033,-0.321C0.033,-0.382 0.049,-0.445 0.079,-0.51C0.11,-0.575 0.156,-0.628 0.217,-0.669C0.279,-0.71 0.352,-0.73 0.436,-0.73ZM0.433,-0.027C0.483,-0.027 0.531,-0.04 0.58,-0.067C0.628,-0.093 0.666,-0.13 0.693,-0.176C0.721,-0.223 0.735,-0.271 0.735,-0.32C0.735,-0.389 0.716,-0.453 0.679,-0.51C0.642,-0.567 0.593,-0.611 0.534,-0.644C0.475,-0.676 0.42,-0.692 0.369,-0.692C0.298,-0.692 0.233,-0.665 0.175,-0.611C0.117,-0.558 0.088,-0.491 0.088,-0.411C0.088,-0.309 0.123,-0.22 0.194,-0.143C0.265,-0.065 0.345,-0.027 0.433,-0.027Z" style="fill-rule:nonzero;"/>
        </g>
        <g transform="matrix(144,0,0,144,537.505,279.211)">
            <path d="M0.605,-0.744L0.571,-0.657L0.563,-0.657C0.565,-0.662 0.565,-0.669 0.565,-0.678C0.565,-0.686 0.563,-0.691 0.557,-0.693C0.552,-0.695 0.544,-0.696 0.532,-0.696L0.344,-0.696L0.344,-0.081C0.344,-0.055 0.346,-0.038 0.35,-0.029C0.354,-0.019 0.36,-0.013 0.367,-0.011C0.374,-0.009 0.385,-0.007 0.401,-0.007L0.401,-0L0.206,-0L0.206,-0.007C0.23,-0.009 0.246,-0.014 0.252,-0.021C0.258,-0.029 0.261,-0.046 0.261,-0.07L0.261,-0.696L0.081,-0.696C0.063,-0.696 0.051,-0.695 0.046,-0.693C0.04,-0.691 0.038,-0.685 0.038,-0.677C0.038,-0.673 0.039,-0.666 0.042,-0.657L0.034,-0.657L0,-0.744L0.007,-0.744C0.013,-0.732 0.019,-0.725 0.025,-0.723C0.03,-0.72 0.043,-0.719 0.061,-0.719L0.539,-0.719C0.558,-0.719 0.571,-0.72 0.579,-0.723C0.588,-0.725 0.594,-0.732 0.598,-0.744L0.605,-0.744Z" style="fill-rule:nonzero;"/>
        </g>
        <g transform="matrix(144,0,0,144,618.997,279.211)">
            <path d="M0.436,-0.73C0.537,-0.73 0.619,-0.699 0.684,-0.638C0.748,-0.577 0.78,-0.5 0.78,-0.408C0.78,-0.29 0.743,-0.191 0.668,-0.11C0.594,-0.029 0.496,0.011 0.373,0.011C0.273,0.011 0.192,-0.021 0.128,-0.086C0.065,-0.152 0.033,-0.23 0.033,-0.321C0.033,-0.382 0.049,-0.445 0.079,-0.51C0.11,-0.575 0.156,-0.628 0.217,-0.669C0.279,-0.71 0.352,-0.73 0.436,-0.73ZM0.433,-0.027C0.483,-0.027 0.531,-0.04 0.58,-0.067C0.628,-0.093 0.666,-0.13 0.693,-0.176C0.721,-0.223 0.735,-0.271 0.735,-0.32C0.735,-0.389 0.716,-0.453 0.679,-0.51C0.642,-0.567 0.593,-0.611 0.534,-0.644C0.475,-0.676 0.42,-0.692 0.369,-0.692C0.298,-0.692 0.233,-0.665 0.175,-0.611C0.117,-0.558 0.088,-0.491 0.088,-0.411C0.088,-0.309 0.123,-0.22 0.194,-0.143C0.265,-0.065 0.345,-0.027 0.433,-0.027Z" style="fill-rule:nonzero;"/>
        </g>
        <g transform="matrix(144,0,0,144,736.067,279.211)">
            <path d="M0.384,-0.71L0.418,-0.62L0.412,-0.619C0.412,-0.619 0.403,-0.629 0.385,-0.648C0.367,-0.667 0.346,-0.681 0.323,-0.692C0.3,-0.702 0.273,-0.707 0.244,-0.707C0.195,-0.707 0.156,-0.693 0.127,-0.665C0.098,-0.637 0.084,-0.603 0.084,-0.563C0.084,-0.537 0.091,-0.514 0.104,-0.494C0.118,-0.474 0.146,-0.456 0.189,-0.439C0.263,-0.414 0.313,-0.395 0.34,-0.383C0.368,-0.37 0.394,-0.349 0.419,-0.319C0.444,-0.289 0.457,-0.251 0.457,-0.204C0.457,-0.184 0.455,-0.166 0.45,-0.148C0.446,-0.13 0.438,-0.113 0.428,-0.097C0.418,-0.08 0.406,-0.065 0.392,-0.052C0.378,-0.038 0.363,-0.028 0.349,-0.021C0.334,-0.014 0.311,-0.009 0.279,-0.005C0.248,-0.002 0.227,-0 0.217,-0L0.025,-0L0.025,-0.209L0.032,-0.209C0.033,-0.14 0.049,-0.091 0.081,-0.064C0.113,-0.037 0.163,-0.023 0.23,-0.023C0.291,-0.023 0.338,-0.037 0.369,-0.066C0.401,-0.095 0.417,-0.13 0.417,-0.171C0.417,-0.196 0.411,-0.217 0.4,-0.234C0.389,-0.252 0.374,-0.267 0.354,-0.28C0.334,-0.293 0.297,-0.309 0.241,-0.328C0.186,-0.348 0.148,-0.364 0.125,-0.379C0.103,-0.393 0.084,-0.415 0.069,-0.444C0.054,-0.473 0.047,-0.503 0.047,-0.533C0.047,-0.589 0.066,-0.636 0.104,-0.673C0.142,-0.711 0.193,-0.73 0.255,-0.73C0.279,-0.73 0.305,-0.727 0.333,-0.722C0.361,-0.716 0.377,-0.713 0.38,-0.711C0.381,-0.71 0.382,-0.71 0.384,-0.71Z" style="fill-rule:nonzero;"/>
        </g>
    </g>
</svg>
